<svg width="19" height="19" viewBox="0 0 19 19" fill="none" xmlns="http://www.w3.org/2000/svg">
<path d="M14.0006 11.8962C15.0925 12.4447 16.0287 13.325 16.712 14.4258C16.8474 14.6438 16.915 14.7527 16.9384 14.9037C16.986 15.2104 16.7762 15.5875 16.4906 15.7088C16.35 15.7686 16.1919 15.7686 15.8756 15.7686M12.5006 8.66773C13.6119 8.11547 14.3756 6.9687 14.3756 5.64355C14.3756 4.31841 13.6119 3.17164 12.5006 2.61937M11.0006 5.64355C11.0006 7.50752 9.48957 9.01855 7.62561 9.01855C5.76165 9.01855 4.25061 7.50752 4.25061 5.64355C4.25061 3.77959 5.76165 2.26855 7.62561 2.26855C9.48957 2.26855 11.0006 3.77959 11.0006 5.64355ZM2.42003 14.2223C3.61576 12.427 5.50264 11.2686 7.62561 11.2686C9.74858 11.2686 11.6355 12.427 12.8312 14.2223C13.0931 14.6156 13.2241 14.8123 13.209 15.0635C13.1973 15.2591 13.0691 15.4985 12.9128 15.6167C12.7121 15.7686 12.436 15.7686 11.8838 15.7686H3.36738C2.81524 15.7686 2.53917 15.7686 2.33844 15.6167C2.18215 15.4985 2.05393 15.2591 2.04219 15.0635C2.02711 14.8123 2.15808 14.6156 2.42003 14.2223Z" stroke="#696969" stroke-width="1.25" stroke-linecap="round" stroke-linejoin="round"/>
</svg>
