<svg width="19" height="19" viewBox="0 0 19 19" fill="none" xmlns="http://www.w3.org/2000/svg">
<path d="M9.66834 11.2686C7.29079 11.2686 5.17644 12.4165 3.83034 14.198C3.54062 14.5815 3.39576 14.7732 3.4005 15.0323C3.40416 15.2324 3.52987 15.485 3.68737 15.6086C3.89124 15.7686 4.17375 15.7686 4.73877 15.7686H14.5979C15.1629 15.7686 15.4455 15.7686 15.6493 15.6086C15.8068 15.485 15.9325 15.2324 15.9362 15.0323C15.9409 14.7732 15.7961 14.5815 15.5064 14.198C14.1602 12.4165 12.0459 11.2686 9.66834 11.2686Z" stroke="#696969" stroke-width="1.25" stroke-linecap="round" stroke-linejoin="round"/>
<path d="M9.66835 9.01855C11.5323 9.01855 13.0433 7.50752 13.0433 5.64355C13.0433 3.77959 11.5323 2.26855 9.66835 2.26855C7.80438 2.26855 6.29335 3.77959 6.29335 5.64355C6.29335 7.50752 7.80438 9.01855 9.66835 9.01855Z" stroke="#696969" stroke-width="1.25" stroke-linecap="round" stroke-linejoin="round"/>
</svg>
