<svg width="19" height="19" viewBox="0 0 19 19" fill="none" xmlns="http://www.w3.org/2000/svg">
<g clip-path="url(#clip0_24_53539)">
<path d="M5.33367 15.0189L11.9855 8.36708C12.2825 8.07007 12.431 7.92156 12.6022 7.86592C12.7529 7.81698 12.9151 7.81698 13.0657 7.86592C13.237 7.92156 13.3855 8.07007 13.6825 8.36708L16.8879 11.5725M8.70898 6.39355C8.70898 7.22198 8.03741 7.89355 7.20898 7.89355C6.38056 7.89355 5.70898 7.22198 5.70898 6.39355C5.70898 5.56513 6.38056 4.89355 7.20898 4.89355C8.03741 4.89355 8.70898 5.56513 8.70898 6.39355ZM17.334 9.01855C17.334 13.1607 13.9761 16.5186 9.83398 16.5186C5.69185 16.5186 2.33398 13.1607 2.33398 9.01855C2.33398 4.87642 5.69185 1.51855 9.83398 1.51855C13.9761 1.51855 17.334 4.87642 17.334 9.01855Z" stroke="#696969" stroke-width="1.25" stroke-linecap="round" stroke-linejoin="round"/>
</g>
<defs>
<clipPath id="clip0_24_53539">
<rect width="18" height="18" fill="white" transform="translate(0.833984 0.0185547)"/>
</clipPath>
</defs>
</svg>
