<svg width="61" height="62" viewBox="0 0 61 62" fill="none" xmlns="http://www.w3.org/2000/svg">
<g clip-path="url(#clip0_1_72)">
<rect y="0.5" width="61" height="61" rx="12" fill="url(#paint0_linear_1_72)"/>
<g filter="url(#filter0_dddddi_1_72)">
<path d="M30.5001 12.7002C25.53 12.7002 24.9068 12.7213 22.9549 12.8103C21.0071 12.8992 19.6768 13.2086 18.5128 13.6609C17.3094 14.1285 16.2888 14.7543 15.2715 15.7716C14.2541 16.789 13.6283 17.8096 13.1607 19.013C12.7083 20.177 12.399 21.5073 12.3101 23.4551C12.221 25.407 12.2 26.0302 12.2 31.0002C12.2 35.9702 12.221 36.5934 12.3101 38.5453C12.399 40.4931 12.7083 41.8234 13.1607 42.9874C13.6284 44.1908 14.2542 45.2113 15.2715 46.2287C16.2889 47.2461 17.3094 47.8719 18.5128 48.3395C19.6768 48.7918 21.0071 49.1012 22.9549 49.1901C24.9068 49.2791 25.53 49.3002 30.5001 49.3002C35.47 49.3002 36.0932 49.2791 38.0451 49.1901C39.9929 49.1012 41.3232 48.7918 42.4872 48.3395C43.6906 47.8719 44.7111 47.2461 45.7286 46.2287C46.7459 45.2113 47.3717 44.1908 47.8393 42.9874C48.2916 41.8234 48.601 40.4931 48.6899 38.5453C48.7789 36.5934 48.8 35.9702 48.8 31.0002C48.8 26.0302 48.7789 25.407 48.6899 23.4551C48.601 21.5073 48.2916 20.177 47.8393 19.013C47.3717 17.8096 46.7459 16.789 45.7286 15.7716C44.7111 14.7543 43.6906 14.1285 42.4872 13.6609C41.3232 13.2086 39.9929 12.8992 38.0451 12.8103C36.0932 12.7213 35.47 12.7002 30.5001 12.7002ZM30.5001 15.9975C35.3863 15.9975 35.9651 16.0162 37.8948 16.1042C39.679 16.1855 40.648 16.4837 41.2928 16.7343C42.1471 17.0663 42.7566 17.4628 43.397 18.1032C44.0374 18.7436 44.4339 19.3532 44.7659 20.2074C45.0165 20.8522 45.3147 21.8212 45.396 23.6054C45.484 25.5351 45.5027 26.1139 45.5027 31.0002C45.5027 35.8865 45.484 36.4653 45.396 38.395C45.3147 40.1792 45.0165 41.1482 44.7659 41.793C44.4339 42.6472 44.0374 43.2568 43.397 43.8972C42.7566 44.5376 42.147 44.9341 41.2928 45.2661C40.648 45.5167 39.679 45.8148 37.8948 45.8962C35.9654 45.9842 35.3867 46.0029 30.5 46.0029C25.6133 46.0029 25.0347 45.9842 23.1052 45.8961C21.321 45.8149 20.352 45.5167 19.7072 45.2661C18.853 44.9341 18.2434 44.5376 17.603 43.8972C16.9627 43.2568 16.5661 42.6472 16.2341 41.793C15.9835 41.1482 15.6854 40.1792 15.604 38.395C15.516 36.4653 15.4973 35.8865 15.4973 31.0002C15.4973 26.1139 15.516 25.5351 15.604 23.6054C15.6854 21.8212 15.9835 20.8522 16.2341 20.2074C16.5661 19.3531 16.9627 18.7436 17.603 18.1032C18.2434 17.4628 18.853 17.0663 19.7072 16.7343C20.352 16.4837 21.321 16.1855 23.1052 16.1042C25.0349 16.0162 25.6137 15.9975 30.5 15.9975" fill="#F7E6FF"/>
<path d="M30.5003 37.1003C27.1313 37.1003 24.4003 34.3692 24.4003 31.0003C24.4003 27.6313 27.1313 24.9002 30.5003 24.9002C33.8693 24.9002 36.6003 27.6313 36.6003 31.0003C36.6003 34.3692 33.8693 37.1003 30.5003 37.1003ZM30.5003 21.603C25.3103 21.603 21.103 25.8103 21.103 31.0003C21.103 36.1903 25.3103 40.3976 30.5003 40.3976C35.6903 40.3976 39.8976 36.1903 39.8976 31.0003C39.8976 25.8103 35.6903 21.603 30.5003 21.603V21.603ZM42.4649 21.2317C42.4649 22.4446 41.4817 23.4277 40.2689 23.4277C39.0561 23.4277 38.0729 22.4446 38.0729 21.2317C38.0729 20.0189 39.0561 19.0356 40.2689 19.0356C41.4817 19.0356 42.4649 20.0189 42.4649 21.2317" fill="#F7E6FF"/>
</g>
</g>
<defs>
<filter id="filter0_dddddi_1_72" x="-3.8" y="12.7002" width="68.6" height="68.6001" filterUnits="userSpaceOnUse" color-interpolation-filters="sRGB">
<feFlood flood-opacity="0" result="BackgroundImageFix"/>
<feColorMatrix in="SourceAlpha" type="matrix" values="0 0 0 0 0 0 0 0 0 0 0 0 0 0 0 0 0 0 127 0" result="hardAlpha"/>
<feOffset dy="16"/>
<feGaussianBlur stdDeviation="8"/>
<feComposite in2="hardAlpha" operator="out"/>
<feColorMatrix type="matrix" values="0 0 0 0 0.164706 0 0 0 0 0.2 0 0 0 0 0.27451 0 0 0 0.04 0"/>
<feBlend mode="normal" in2="BackgroundImageFix" result="effect1_dropShadow_1_72"/>
<feColorMatrix in="SourceAlpha" type="matrix" values="0 0 0 0 0 0 0 0 0 0 0 0 0 0 0 0 0 0 127 0" result="hardAlpha"/>
<feOffset dy="5"/>
<feGaussianBlur stdDeviation="2.5"/>
<feComposite in2="hardAlpha" operator="out"/>
<feColorMatrix type="matrix" values="0 0 0 0 0.164706 0 0 0 0 0.2 0 0 0 0 0.27451 0 0 0 0.03 0"/>
<feBlend mode="normal" in2="effect1_dropShadow_1_72" result="effect2_dropShadow_1_72"/>
<feColorMatrix in="SourceAlpha" type="matrix" values="0 0 0 0 0 0 0 0 0 0 0 0 0 0 0 0 0 0 127 0" result="hardAlpha"/>
<feOffset dy="3"/>
<feGaussianBlur stdDeviation="1.5"/>
<feComposite in2="hardAlpha" operator="out"/>
<feColorMatrix type="matrix" values="0 0 0 0 0.164706 0 0 0 0 0.2 0 0 0 0 0.27451 0 0 0 0.05 0"/>
<feBlend mode="normal" in2="effect2_dropShadow_1_72" result="effect3_dropShadow_1_72"/>
<feColorMatrix in="SourceAlpha" type="matrix" values="0 0 0 0 0 0 0 0 0 0 0 0 0 0 0 0 0 0 127 0" result="hardAlpha"/>
<feOffset dy="1"/>
<feGaussianBlur stdDeviation="0.5"/>
<feComposite in2="hardAlpha" operator="out"/>
<feColorMatrix type="matrix" values="0 0 0 0 0.164706 0 0 0 0 0.2 0 0 0 0 0.27451 0 0 0 0.03 0"/>
<feBlend mode="normal" in2="effect3_dropShadow_1_72" result="effect4_dropShadow_1_72"/>
<feColorMatrix in="SourceAlpha" type="matrix" values="0 0 0 0 0 0 0 0 0 0 0 0 0 0 0 0 0 0 127 0" result="hardAlpha"/>
<feOffset/>
<feComposite in2="hardAlpha" operator="out"/>
<feColorMatrix type="matrix" values="0 0 0 0 0.054902 0 0 0 0 0.247059 0 0 0 0 0.494118 0 0 0 0.06 0"/>
<feBlend mode="normal" in2="effect4_dropShadow_1_72" result="effect5_dropShadow_1_72"/>
<feBlend mode="normal" in="SourceGraphic" in2="effect5_dropShadow_1_72" result="shape"/>
<feColorMatrix in="SourceAlpha" type="matrix" values="0 0 0 0 0 0 0 0 0 0 0 0 0 0 0 0 0 0 127 0" result="hardAlpha"/>
<feOffset dy="4"/>
<feGaussianBlur stdDeviation="2"/>
<feComposite in2="hardAlpha" operator="arithmetic" k2="-1" k3="1"/>
<feColorMatrix type="matrix" values="0 0 0 0 1 0 0 0 0 1 0 0 0 0 1 0 0 0 0.2 0"/>
<feBlend mode="normal" in2="shape" result="effect6_innerShadow_1_72"/>
</filter>
<linearGradient id="paint0_linear_1_72" x1="-20.862" y1="-15.726" x2="73.444" y2="79.678" gradientUnits="userSpaceOnUse">
<stop stop-color="#A06DF6"/>
<stop offset="0.25" stop-color="#D174CD"/>
<stop offset="0.500078" stop-color="#FF76AF"/>
<stop offset="0.745078" stop-color="#FD918F"/>
<stop offset="1" stop-color="#FCAB73"/>
</linearGradient>
<clipPath id="clip0_1_72">
<rect y="0.5" width="61" height="61" rx="12" fill="white"/>
</clipPath>
</defs>
</svg>
