<svg width="276" height="163" viewBox="0 0 276 163" fill="none" xmlns="http://www.w3.org/2000/svg">
<rect x="0.666626" width="275.333" height="163" rx="8" fill="#242429"/>
<rect x="2.66663" y="2" width="271.333" height="28" rx="6" fill="#161518"/>
<rect x="3.16663" y="2.5" width="270.333" height="27" rx="5.5" stroke="white" stroke-opacity="0.1"/>
<path d="M15.3342 20L12.9138 11.2727H14.2987L15.999 18.0312H16.08L17.8484 11.2727H19.2206L20.9891 18.0355H21.07L22.7661 11.2727H24.1553L21.7305 20H20.4053L18.5686 13.4631H18.5004L16.6638 20H15.3342ZM26.2878 16.1136V20H25.0136V11.2727H26.2707V14.5199H26.3517C26.5051 14.1676 26.7395 13.8878 27.0548 13.6804C27.3702 13.473 27.7821 13.3693 28.2906 13.3693C28.7395 13.3693 29.1315 13.4616 29.4668 13.6463C29.8048 13.831 30.0662 14.1065 30.2508 14.473C30.4383 14.8366 30.5321 15.2912 30.5321 15.8366V20H29.2579V15.9901C29.2579 15.5099 29.1344 15.1378 28.8872 14.8736C28.64 14.6065 28.2963 14.473 27.856 14.473C27.5548 14.473 27.2849 14.5369 27.0463 14.6648C26.8105 14.7926 26.6244 14.9801 26.4881 15.2273C26.3545 15.4716 26.2878 15.767 26.2878 16.1136ZM34.8134 20.1321C34.1685 20.1321 33.6131 19.9943 33.1472 19.7188C32.6841 19.4403 32.3262 19.0497 32.0733 18.5469C31.8233 18.0412 31.6983 17.4489 31.6983 16.7699C31.6983 16.0994 31.8233 15.5085 32.0733 14.9972C32.3262 14.4858 32.6785 14.0866 33.1302 13.7997C33.5847 13.5128 34.116 13.3693 34.7239 13.3693C35.0932 13.3693 35.4512 13.4304 35.7978 13.5526C36.1444 13.6747 36.4554 13.8665 36.731 14.1278C37.0066 14.3892 37.2239 14.7287 37.383 15.1463C37.5421 15.5611 37.6216 16.0653 37.6216 16.6591V17.1108H32.4185V16.1562H36.3731C36.3731 15.821 36.3049 15.5241 36.1685 15.2656C36.0322 15.0043 35.8404 14.7983 35.5932 14.6477C35.3489 14.4972 35.062 14.4219 34.7324 14.4219C34.3745 14.4219 34.062 14.5099 33.7949 14.6861C33.5307 14.8594 33.3262 15.0866 33.1813 15.3679C33.0393 15.6463 32.9682 15.9489 32.9682 16.2756V17.0213C32.9682 17.4588 33.0449 17.831 33.1983 18.1378C33.3546 18.4446 33.5719 18.679 33.8503 18.8409C34.1287 19 34.454 19.0795 34.8262 19.0795C35.0677 19.0795 35.2878 19.0455 35.4867 18.9773C35.6856 18.9062 35.8574 18.8011 36.0023 18.6619C36.1472 18.5227 36.258 18.3509 36.3347 18.1463L37.5407 18.3636C37.4441 18.7187 37.2708 19.0298 37.0208 19.2969C36.7736 19.5611 36.4625 19.767 36.0875 19.9148C35.7154 20.0597 35.2907 20.1321 34.8134 20.1321ZM38.7953 20V13.4545H40.0269V14.4943H40.0951C40.2144 14.142 40.4246 13.8651 40.7257 13.6634C41.0297 13.4588 41.3735 13.3565 41.757 13.3565C41.8365 13.3565 41.9303 13.3594 42.0382 13.3651C42.149 13.3707 42.2357 13.3778 42.2982 13.3864V14.6051C42.2471 14.5909 42.1561 14.5753 42.0255 14.5582C41.8948 14.5384 41.7641 14.5284 41.6334 14.5284C41.3323 14.5284 41.0638 14.5923 40.828 14.7202C40.5951 14.8452 40.4104 15.0199 40.274 15.2443C40.1377 15.4659 40.0695 15.7187 40.0695 16.0028V20H38.7953ZM45.7475 20.1321C45.1026 20.1321 44.5472 19.9943 44.0813 19.7188C43.6182 19.4403 43.2602 19.0497 43.0074 18.5469C42.7574 18.0412 42.6324 17.4489 42.6324 16.7699C42.6324 16.0994 42.7574 15.5085 43.0074 14.9972C43.2602 14.4858 43.6125 14.0866 44.0642 13.7997C44.5188 13.5128 45.05 13.3693 45.658 13.3693C46.0273 13.3693 46.3852 13.4304 46.7318 13.5526C47.0784 13.6747 47.3895 13.8665 47.6651 14.1278C47.9406 14.3892 48.158 14.7287 48.3171 15.1463C48.4762 15.5611 48.5557 16.0653 48.5557 16.6591V17.1108H43.3526V16.1562H47.3071C47.3071 15.821 47.2389 15.5241 47.1026 15.2656C46.9662 15.0043 46.7745 14.7983 46.5273 14.6477C46.283 14.4972 45.996 14.4219 45.6665 14.4219C45.3085 14.4219 44.996 14.5099 44.729 14.6861C44.4648 14.8594 44.2602 15.0866 44.1154 15.3679C43.9733 15.6463 43.9023 15.9489 43.9023 16.2756V17.0213C43.9023 17.4588 43.979 17.831 44.1324 18.1378C44.2887 18.4446 44.506 18.679 44.7844 18.8409C45.0628 19 45.3881 19.0795 45.7602 19.0795C46.0017 19.0795 46.2219 19.0455 46.4208 18.9773C46.6196 18.9062 46.7915 18.8011 46.9364 18.6619C47.0813 18.5227 47.1921 18.3509 47.2688 18.1463L48.4747 18.3636C48.3781 18.7187 48.2049 19.0298 47.9549 19.2969C47.7077 19.5611 47.3966 19.767 47.0216 19.9148C46.6495 20.0597 46.2247 20.1321 45.7475 20.1321ZM54.57 20.1449C54.1552 20.1449 53.7802 20.0682 53.445 19.9148C53.1098 19.7585 52.8442 19.5327 52.6481 19.2372C52.455 18.9418 52.3584 18.5795 52.3584 18.1506C52.3584 17.7812 52.4294 17.4773 52.5714 17.2386C52.7135 17 52.9052 16.8111 53.1467 16.6719C53.3882 16.5327 53.6581 16.4276 53.9564 16.3565C54.2547 16.2855 54.5587 16.2315 54.8683 16.1946C55.2604 16.1491 55.5785 16.1122 55.8229 16.0838C56.0672 16.0526 56.2447 16.0028 56.3555 15.9347C56.4663 15.8665 56.5217 15.7557 56.5217 15.6023V15.5724C56.5217 15.2003 56.4166 14.9119 56.2064 14.7074C55.999 14.5028 55.6893 14.4006 55.2774 14.4006C54.8484 14.4006 54.5104 14.4957 54.2632 14.6861C54.0189 14.8736 53.8499 15.0824 53.7561 15.3125L52.5587 15.0398C52.7007 14.642 52.9081 14.321 53.1808 14.0767C53.4564 13.8295 53.7731 13.6506 54.1311 13.5398C54.4891 13.4261 54.8655 13.3693 55.2604 13.3693C55.5217 13.3693 55.7987 13.4006 56.0913 13.4631C56.3868 13.5227 56.6624 13.6335 56.918 13.7955C57.1766 13.9574 57.3882 14.1889 57.553 14.4901C57.7177 14.7884 57.8001 15.1761 57.8001 15.6534V20H56.5558V19.1051H56.5047C56.4223 19.2699 56.2987 19.4318 56.1339 19.5909C55.9692 19.75 55.7575 19.8821 55.499 19.9872C55.2405 20.0923 54.9308 20.1449 54.57 20.1449ZM54.847 19.1222C55.1993 19.1222 55.5004 19.0526 55.7504 18.9134C56.0033 18.7741 56.195 18.5923 56.3257 18.3679C56.4592 18.1406 56.526 17.8977 56.526 17.6392V16.7955C56.4805 16.8409 56.3925 16.8835 56.2618 16.9233C56.1339 16.9602 55.9876 16.9929 55.8229 17.0213C55.6581 17.0469 55.4976 17.071 55.3413 17.0938C55.1851 17.1136 55.0544 17.1307 54.9493 17.1449C54.7021 17.1761 54.4763 17.2287 54.2717 17.3026C54.07 17.3764 53.9081 17.483 53.7859 17.6222C53.6666 17.7585 53.607 17.9403 53.607 18.1676C53.607 18.483 53.7234 18.7216 53.9564 18.8835C54.1893 19.0426 54.4862 19.1222 54.847 19.1222ZM59.2572 20V13.4545H60.4802V14.5199H60.5612C60.6976 14.1591 60.9206 13.8778 61.2302 13.6761C61.5399 13.4716 61.9106 13.3693 62.3424 13.3693C62.7799 13.3693 63.1464 13.4716 63.4419 13.6761C63.7402 13.8807 63.9603 14.1619 64.1024 14.5199H64.1706C64.3268 14.1705 64.5754 13.892 64.9163 13.6847C65.2572 13.4744 65.6635 13.3693 66.1351 13.3693C66.7288 13.3693 67.2132 13.5554 67.5882 13.9276C67.966 14.2997 68.1549 14.8608 68.1549 15.6108V20H66.8808V15.7301C66.8808 15.2869 66.7601 14.9659 66.5186 14.767C66.2771 14.5682 65.9888 14.4688 65.6535 14.4688C65.2388 14.4688 64.9163 14.5966 64.6862 14.8523C64.4561 15.1051 64.341 15.4304 64.341 15.8281V20H63.0711V15.6491C63.0711 15.294 62.9603 15.0085 62.7388 14.7926C62.5172 14.5767 62.2288 14.4688 61.8737 14.4688C61.6322 14.4688 61.4092 14.5327 61.2047 14.6605C61.003 14.7855 60.8396 14.9602 60.7146 15.1847C60.5924 15.4091 60.5314 15.669 60.5314 15.9645V20H59.2572ZM73.9775 11.2727V20H72.6607V11.2727H73.9775ZM81.2329 22.5909C80.7131 22.5909 80.2656 22.5227 79.8906 22.3864C79.5185 22.25 79.2145 22.0696 78.9787 21.8452C78.7429 21.6207 78.5668 21.375 78.4503 21.108L79.5454 20.6562C79.6222 20.7812 79.7244 20.9134 79.8523 21.0526C79.9829 21.1946 80.1591 21.3153 80.3807 21.4148C80.6051 21.5142 80.8935 21.5639 81.2457 21.5639C81.7287 21.5639 82.1278 21.446 82.4432 21.2102C82.7585 20.9773 82.9162 20.6051 82.9162 20.0938V18.8068H82.8352C82.7585 18.946 82.6477 19.1009 82.5028 19.2713C82.3608 19.4418 82.1648 19.5895 81.9148 19.7145C81.6648 19.8395 81.3395 19.902 80.9389 19.902C80.4219 19.902 79.956 19.7812 79.5412 19.5398C79.1293 19.2955 78.8025 18.9361 78.5611 18.4616C78.3224 17.9844 78.2031 17.3977 78.2031 16.7017C78.2031 16.0057 78.321 15.4091 78.5568 14.9119C78.7954 14.4148 79.1222 14.0341 79.5369 13.7699C79.9517 13.5028 80.4219 13.3693 80.9474 13.3693C81.3537 13.3693 81.6818 13.4375 81.9318 13.5739C82.1818 13.7074 82.3764 13.8636 82.5156 14.0426C82.6577 14.2216 82.767 14.3793 82.8437 14.5156H82.9375V13.4545H84.1861V20.1449C84.1861 20.7074 84.0554 21.169 83.794 21.5298C83.5327 21.8906 83.179 22.1577 82.7329 22.331C82.2898 22.5043 81.7898 22.5909 81.2329 22.5909ZM81.2202 18.8452C81.5866 18.8452 81.8963 18.7599 82.1491 18.5895C82.4048 18.4162 82.598 18.169 82.7287 17.848C82.8622 17.5241 82.929 17.1364 82.929 16.6847C82.929 16.2443 82.8636 15.8565 82.7329 15.5213C82.6023 15.1861 82.4105 14.9247 82.1577 14.7372C81.9048 14.5469 81.5923 14.4517 81.2202 14.4517C80.8366 14.4517 80.517 14.5511 80.2614 14.75C80.0057 14.946 79.8125 15.2131 79.6818 15.5511C79.554 15.8892 79.49 16.267 79.49 16.6847C79.49 17.1136 79.5554 17.4901 79.6861 17.8139C79.8168 18.1378 80.0099 18.3906 80.2656 18.5724C80.5241 18.7543 80.8423 18.8452 81.2202 18.8452ZM88.412 20.1321C87.7983 20.1321 87.2628 19.9915 86.8054 19.7102C86.3481 19.429 85.9929 19.0355 85.7401 18.5298C85.4873 18.0241 85.3608 17.4332 85.3608 16.7571C85.3608 16.0781 85.4873 15.4844 85.7401 14.9759C85.9929 14.4673 86.3481 14.0724 86.8054 13.7912C87.2628 13.5099 87.7983 13.3693 88.412 13.3693C89.0256 13.3693 89.5611 13.5099 90.0185 13.7912C90.4759 14.0724 90.831 14.4673 91.0839 14.9759C91.3367 15.4844 91.4631 16.0781 91.4631 16.7571C91.4631 17.4332 91.3367 18.0241 91.0839 18.5298C90.831 19.0355 90.4759 19.429 90.0185 19.7102C89.5611 19.9915 89.0256 20.1321 88.412 20.1321ZM88.4162 19.0625C88.814 19.0625 89.1435 18.9574 89.4049 18.7472C89.6662 18.5369 89.8594 18.2571 89.9844 17.9077C90.1123 17.5582 90.1762 17.1733 90.1762 16.7528C90.1762 16.3352 90.1123 15.9517 89.9844 15.6023C89.8594 15.25 89.6662 14.9673 89.4049 14.7543C89.1435 14.5412 88.814 14.4347 88.4162 14.4347C88.0157 14.4347 87.6833 14.5412 87.4191 14.7543C87.1577 14.9673 86.9631 15.25 86.8353 15.6023C86.7103 15.9517 86.6478 16.3352 86.6478 16.7528C86.6478 17.1733 86.7103 17.5582 86.8353 17.9077C86.9631 18.2571 87.1577 18.5369 87.4191 18.7472C87.6833 18.9574 88.0157 19.0625 88.4162 19.0625ZM92.6453 20V13.4545H93.9195V20H92.6453ZM93.2888 12.4446C93.0672 12.4446 92.8769 12.3707 92.7178 12.223C92.5615 12.0724 92.4834 11.8935 92.4834 11.6861C92.4834 11.4759 92.5615 11.2969 92.7178 11.1491C92.8769 10.9986 93.0672 10.9233 93.2888 10.9233C93.5104 10.9233 93.6993 10.9986 93.8556 11.1491C94.0147 11.2969 94.0942 11.4759 94.0942 11.6861C94.0942 11.8935 94.0147 12.0724 93.8556 12.223C93.6993 12.3707 93.5104 12.4446 93.2888 12.4446ZM96.6678 16.1136V20H95.3936V13.4545H96.6166V14.5199H96.6976C96.8482 14.1733 97.084 13.8949 97.405 13.6847C97.7289 13.4744 98.1365 13.3693 98.628 13.3693C99.074 13.3693 99.4647 13.4631 99.7999 13.6506C100.135 13.8352 100.395 14.1108 100.58 14.4773C100.764 14.8437 100.857 15.2969 100.857 15.8366V20H99.5825V15.9901C99.5825 15.5156 99.459 15.1449 99.2118 14.8778C98.9647 14.608 98.6252 14.473 98.1933 14.473C97.8979 14.473 97.6351 14.5369 97.405 14.6648C97.1777 14.7926 96.9973 14.9801 96.8638 15.2273C96.7331 15.4716 96.6678 15.767 96.6678 16.1136ZM105.07 22.5909C104.55 22.5909 104.102 22.5227 103.727 22.3864C103.355 22.25 103.051 22.0696 102.816 21.8452C102.58 21.6207 102.404 21.375 102.287 21.108L103.382 20.6562C103.459 20.7812 103.561 20.9134 103.689 21.0526C103.82 21.1946 103.996 21.3153 104.218 21.4148C104.442 21.5142 104.73 21.5639 105.083 21.5639C105.566 21.5639 105.965 21.446 106.28 21.2102C106.595 20.9773 106.753 20.6051 106.753 20.0938V18.8068H106.672C106.595 18.946 106.485 19.1009 106.34 19.2713C106.198 19.4418 106.002 19.5895 105.752 19.7145C105.502 19.8395 105.176 19.902 104.776 19.902C104.259 19.902 103.793 19.7812 103.378 19.5398C102.966 19.2955 102.639 18.9361 102.398 18.4616C102.159 17.9844 102.04 17.3977 102.04 16.7017C102.04 16.0057 102.158 15.4091 102.394 14.9119C102.632 14.4148 102.959 14.0341 103.374 13.7699C103.789 13.5028 104.259 13.3693 104.784 13.3693C105.191 13.3693 105.519 13.4375 105.769 13.5739C106.019 13.7074 106.213 13.8636 106.352 14.0426C106.495 14.2216 106.604 14.3793 106.681 14.5156H106.774V13.4545H108.023V20.1449C108.023 20.7074 107.892 21.169 107.631 21.5298C107.37 21.8906 107.016 22.1577 106.57 22.331C106.127 22.5043 105.627 22.5909 105.07 22.5909ZM105.057 18.8452C105.424 18.8452 105.733 18.7599 105.986 18.5895C106.242 18.4162 106.435 18.169 106.566 17.848C106.699 17.5241 106.766 17.1364 106.766 16.6847C106.766 16.2443 106.701 15.8565 106.57 15.5213C106.439 15.1861 106.247 14.9247 105.995 14.7372C105.742 14.5469 105.429 14.4517 105.057 14.4517C104.674 14.4517 104.354 14.5511 104.098 14.75C103.843 14.946 103.649 15.2131 103.519 15.5511C103.391 15.8892 103.327 16.267 103.327 16.6847C103.327 17.1136 103.392 17.4901 103.523 17.8139C103.654 18.1378 103.847 18.3906 104.102 18.5724C104.361 18.7543 104.679 18.8452 105.057 18.8452ZM113.702 16.1136V20H112.428V13.4545H113.651V14.5199H113.732C113.882 14.1733 114.118 13.8949 114.439 13.6847C114.763 13.4744 115.17 13.3693 115.662 13.3693C116.108 13.3693 116.499 13.4631 116.834 13.6506C117.169 13.8352 117.429 14.1108 117.614 14.4773C117.798 14.8437 117.891 15.2969 117.891 15.8366V20H116.616V15.9901C116.616 15.5156 116.493 15.1449 116.246 14.8778C115.999 14.608 115.659 14.473 115.227 14.473C114.932 14.473 114.669 14.5369 114.439 14.6648C114.212 14.7926 114.031 14.9801 113.898 15.2273C113.767 15.4716 113.702 15.767 113.702 16.1136ZM122.18 20.1321C121.536 20.1321 120.98 19.9943 120.514 19.7188C120.051 19.4403 119.693 19.0497 119.44 18.5469C119.19 18.0412 119.065 17.4489 119.065 16.7699C119.065 16.0994 119.19 15.5085 119.44 14.9972C119.693 14.4858 120.045 14.0866 120.497 13.7997C120.952 13.5128 121.483 13.3693 122.091 13.3693C122.46 13.3693 122.818 13.4304 123.165 13.5526C123.511 13.6747 123.822 13.8665 124.098 14.1278C124.374 14.3892 124.591 14.7287 124.75 15.1463C124.909 15.5611 124.989 16.0653 124.989 16.6591V17.1108H119.786V16.1562H123.74C123.74 15.821 123.672 15.5241 123.536 15.2656C123.399 15.0043 123.207 14.7983 122.96 14.6477C122.716 14.4972 122.429 14.4219 122.099 14.4219C121.742 14.4219 121.429 14.5099 121.162 14.6861C120.898 14.8594 120.693 15.0866 120.548 15.3679C120.406 15.6463 120.335 15.9489 120.335 16.2756V17.0213C120.335 17.4588 120.412 17.831 120.565 18.1378C120.722 18.4446 120.939 18.679 121.217 18.8409C121.496 19 121.821 19.0795 122.193 19.0795C122.435 19.0795 122.655 19.0455 122.854 18.9773C123.053 18.9062 123.224 18.8011 123.369 18.6619C123.514 18.5227 123.625 18.3509 123.702 18.1463L124.908 18.3636C124.811 18.7187 124.638 19.0298 124.388 19.2969C124.141 19.5611 123.83 19.767 123.455 19.9148C123.082 20.0597 122.658 20.1321 122.18 20.1321ZM127.016 13.4545L128.46 16.0028L129.918 13.4545H131.311L129.27 16.7273L131.328 20H129.935L128.46 17.554L126.99 20H125.592L127.629 16.7273L125.618 13.4545H127.016ZM135.435 13.4545V14.4773H131.86V13.4545H135.435ZM132.818 11.8864H134.092V18.0781C134.092 18.3253 134.129 18.5114 134.203 18.6364C134.277 18.7585 134.372 18.8423 134.489 18.8878C134.608 18.9304 134.737 18.9517 134.877 18.9517C134.979 18.9517 135.068 18.9446 135.145 18.9304C135.222 18.9162 135.281 18.9048 135.324 18.8963L135.554 19.9489C135.48 19.9773 135.375 20.0057 135.239 20.0341C135.102 20.0653 134.932 20.0824 134.727 20.0852C134.392 20.0909 134.08 20.0312 133.79 19.9062C133.5 19.7812 133.266 19.5881 133.087 19.3267C132.908 19.0653 132.818 18.7372 132.818 18.3423V11.8864ZM137.998 17.4901V17.4091C138.003 16.8807 138.056 16.4602 138.155 16.1477C138.258 15.8352 138.403 15.5824 138.59 15.3892C138.778 15.196 139.003 15.0199 139.268 14.8608C139.438 14.7528 139.591 14.6321 139.728 14.4986C139.864 14.3651 139.972 14.2116 140.052 14.0384C140.131 13.8651 140.171 13.6733 140.171 13.4631C140.171 13.2102 140.111 12.9915 139.992 12.8068C139.873 12.6222 139.714 12.4801 139.515 12.3807C139.319 12.2784 139.1 12.2273 138.859 12.2273C138.64 12.2273 138.431 12.2727 138.232 12.3636C138.033 12.4545 137.868 12.5966 137.738 12.7898C137.607 12.9801 137.532 13.2259 137.512 13.527H136.216C136.236 13.0156 136.366 12.5838 136.604 12.2315C136.843 11.8764 137.158 11.608 137.55 11.4261C137.945 11.2443 138.381 11.1534 138.859 11.1534C139.381 11.1534 139.839 11.2514 140.231 11.4474C140.623 11.6406 140.927 11.9119 141.143 12.2614C141.361 12.608 141.471 13.0128 141.471 13.4759C141.471 13.794 141.421 14.081 141.322 14.3366C141.222 14.5895 141.08 14.8153 140.895 15.0142C140.714 15.2131 140.495 15.3892 140.239 15.5426C139.998 15.6932 139.802 15.8494 139.651 16.0114C139.503 16.1733 139.395 16.3651 139.327 16.5866C139.259 16.8082 139.222 17.0824 139.216 17.4091V17.4901H137.998ZM138.641 20.081C138.408 20.081 138.208 19.9986 138.04 19.8338C137.873 19.6662 137.789 19.4645 137.789 19.2287C137.789 18.9957 137.873 18.7969 138.04 18.6321C138.208 18.4645 138.408 18.3807 138.641 18.3807C138.871 18.3807 139.07 18.4645 139.238 18.6321C139.408 18.7969 139.493 18.9957 139.493 19.2287C139.493 19.3849 139.454 19.5284 139.374 19.6591C139.297 19.7869 139.195 19.8892 139.067 19.9659C138.939 20.0426 138.797 20.081 138.641 20.081Z" fill="white"/>
<rect x="10.6666" y="34" width="259.333" height="28" rx="6" fill="#242429"/>
<path d="M24.4507 52H21.6254V43.2727H24.5402C25.3953 43.2727 26.1297 43.4474 26.7433 43.7969C27.357 44.1435 27.8271 44.642 28.1538 45.2926C28.4834 45.9403 28.6482 46.7173 28.6482 47.6236C28.6482 48.5327 28.482 49.3139 28.1496 49.9673C27.82 50.6207 27.3428 51.1236 26.7178 51.4759C26.0928 51.8253 25.3371 52 24.4507 52ZM22.9422 50.8494H24.3783C25.043 50.8494 25.5956 50.7244 26.0359 50.4744C26.4763 50.2216 26.8058 49.8565 27.0246 49.3793C27.2433 48.8991 27.3527 48.3139 27.3527 47.6236C27.3527 46.9389 27.2433 46.358 27.0246 45.8807C26.8087 45.4034 26.4862 45.0412 26.0573 44.794C25.6283 44.5469 25.0956 44.4233 24.4592 44.4233H22.9422V50.8494ZM34.0896 49.2855V45.4545H35.368V52H34.1152V50.8665H34.047C33.8964 51.2159 33.655 51.5071 33.3226 51.7401C32.993 51.9702 32.5825 52.0852 32.091 52.0852C31.6706 52.0852 31.2984 51.9929 30.9746 51.8082C30.6535 51.6207 30.4007 51.3438 30.216 50.9773C30.0342 50.6108 29.9433 50.1577 29.9433 49.6179V45.4545H31.2175V49.4645C31.2175 49.9105 31.341 50.2656 31.5882 50.5298C31.8354 50.794 32.1564 50.9261 32.5513 50.9261C32.7899 50.9261 33.0271 50.8665 33.2629 50.7472C33.5016 50.6278 33.699 50.4474 33.8552 50.206C34.0143 49.9645 34.0925 49.6577 34.0896 49.2855ZM36.9423 52V43.2727H38.2165V46.5156H38.2932C38.367 46.3793 38.4736 46.2216 38.6128 46.0426C38.752 45.8636 38.9451 45.7074 39.1923 45.5739C39.4395 45.4375 39.7662 45.3693 40.1724 45.3693C40.7008 45.3693 41.1724 45.5028 41.5872 45.7699C42.002 46.0369 42.3273 46.4219 42.563 46.9247C42.8017 47.4276 42.921 48.0327 42.921 48.7401C42.921 49.4474 42.8031 50.054 42.5673 50.5597C42.3315 51.0625 42.0076 51.4503 41.5957 51.723C41.1838 51.9929 40.7136 52.1278 40.1852 52.1278C39.7875 52.1278 39.4622 52.0611 39.2094 51.9276C38.9594 51.794 38.7633 51.6378 38.6213 51.4588C38.4792 51.2798 38.3699 51.1207 38.2932 50.9815H38.1866V52H36.9423ZM38.1909 48.7273C38.1909 49.1875 38.2576 49.5909 38.3912 49.9375C38.5247 50.2841 38.7179 50.5554 38.9707 50.7514C39.2236 50.9446 39.5332 51.0412 39.8997 51.0412C40.2804 51.0412 40.5986 50.9403 40.8542 50.7386C41.1099 50.5341 41.3031 50.2571 41.4338 49.9077C41.5673 49.5582 41.6341 49.1648 41.6341 48.7273C41.6341 48.2955 41.5687 47.9077 41.438 47.5639C41.3102 47.2202 41.117 46.9489 40.8585 46.75C40.6028 46.5511 40.2832 46.4517 39.8997 46.4517C39.5304 46.4517 39.2179 46.5469 38.9622 46.7372C38.7094 46.9276 38.5176 47.1932 38.3869 47.5341C38.2562 47.875 38.1909 48.2727 38.1909 48.7273ZM46.0166 52.1449C45.6018 52.1449 45.2268 52.0682 44.8916 51.9148C44.5564 51.7585 44.2907 51.5327 44.0947 51.2372C43.9015 50.9418 43.8049 50.5795 43.8049 50.1506C43.8049 49.7812 43.876 49.4773 44.018 49.2386C44.16 49 44.3518 48.8111 44.5933 48.6719C44.8348 48.5327 45.1047 48.4276 45.4029 48.3565C45.7012 48.2855 46.0052 48.2315 46.3149 48.1946C46.7069 48.1491 47.0251 48.1122 47.2694 48.0838C47.5137 48.0526 47.6913 48.0028 47.8021 47.9347C47.9129 47.8665 47.9683 47.7557 47.9683 47.6023V47.5724C47.9683 47.2003 47.8632 46.9119 47.6529 46.7074C47.4456 46.5028 47.1359 46.4006 46.724 46.4006C46.295 46.4006 45.9569 46.4957 45.7098 46.6861C45.4654 46.8736 45.2964 47.0824 45.2027 47.3125L44.0052 47.0398C44.1473 46.642 44.3547 46.321 44.6274 46.0767C44.9029 45.8295 45.2197 45.6506 45.5777 45.5398C45.9356 45.4261 46.312 45.3693 46.7069 45.3693C46.9683 45.3693 47.2453 45.4006 47.5379 45.4631C47.8333 45.5227 48.1089 45.6335 48.3646 45.7955C48.6231 45.9574 48.8348 46.1889 48.9995 46.4901C49.1643 46.7884 49.2467 47.1761 49.2467 47.6534V52H48.0024V51.1051H47.9512C47.8689 51.2699 47.7453 51.4318 47.5805 51.5909C47.4157 51.75 47.2041 51.8821 46.9456 51.9872C46.687 52.0923 46.3774 52.1449 46.0166 52.1449ZM46.2936 51.1222C46.6458 51.1222 46.947 51.0526 47.197 50.9134C47.4498 50.7741 47.6416 50.5923 47.7723 50.3679C47.9058 50.1406 47.9726 49.8977 47.9726 49.6392V48.7955C47.9271 48.8409 47.839 48.8835 47.7083 48.9233C47.5805 48.9602 47.4342 48.9929 47.2694 49.0213C47.1047 49.0469 46.9441 49.071 46.7879 49.0938C46.6316 49.1136 46.501 49.1307 46.3958 49.1449C46.1487 49.1761 45.9228 49.2287 45.7183 49.3026C45.5166 49.3764 45.3547 49.483 45.2325 49.6222C45.1132 49.7585 45.0535 49.9403 45.0535 50.1676C45.0535 50.483 45.17 50.7216 45.4029 50.8835C45.6359 51.0426 45.9328 51.1222 46.2936 51.1222ZM50.7038 52V45.4545H51.9779V52H50.7038ZM50.0944 44.4276C49.8955 44.4276 49.7208 44.3537 49.5703 44.206C49.4197 44.0554 49.3444 43.8821 49.3444 43.6861C49.3444 43.473 49.4197 43.2955 49.5703 43.1534C49.7208 43.0114 49.8955 42.9403 50.0944 42.9403C50.3075 42.9403 50.485 43.0114 50.6271 43.1534C50.772 43.2955 50.8444 43.473 50.8444 43.6861C50.8444 43.8821 50.772 44.0554 50.6271 44.206C50.485 44.3537 50.3075 44.4276 50.0944 44.4276ZM52.6001 44.4276C52.4012 44.4276 52.2265 44.3537 52.0759 44.206C51.9254 44.0554 51.8501 43.8821 51.8501 43.6861C51.8501 43.473 51.9254 43.2955 52.0759 43.1534C52.2265 43.0114 52.4012 42.9403 52.6001 42.9403C52.8132 42.9403 52.9907 43.0114 53.1328 43.1534C53.2776 43.2955 53.3501 43.473 53.3501 43.6861C53.3501 43.8821 53.2776 44.0554 53.1328 44.206C52.9907 44.3537 52.8132 44.4276 52.6001 44.4276Z" fill="white"/>
<rect x="10.6666" y="66" width="259.333" height="28" rx="6" fill="url(#paint0_linear_20_1008)"/>
<path d="M21.195 76.4062V75.2727H27.9493V76.4062H25.2263V84H23.9138V76.4062H21.195ZM30.9075 84.1321C30.2938 84.1321 29.7583 83.9915 29.3009 83.7102C28.8435 83.429 28.4884 83.0355 28.2356 82.5298C27.9827 82.0241 27.8563 81.4332 27.8563 80.7571C27.8563 80.0781 27.9827 79.4844 28.2356 78.9759C28.4884 78.4673 28.8435 78.0724 29.3009 77.7912C29.7583 77.5099 30.2938 77.3693 30.9075 77.3693C31.5211 77.3693 32.0566 77.5099 32.514 77.7912C32.9714 78.0724 33.3265 78.4673 33.5793 78.9759C33.8322 79.4844 33.9586 80.0781 33.9586 80.7571C33.9586 81.4332 33.8322 82.0241 33.5793 82.5298C33.3265 83.0355 32.9714 83.429 32.514 83.7102C32.0566 83.9915 31.5211 84.1321 30.9075 84.1321ZM30.9117 83.0625C31.3094 83.0625 31.639 82.9574 31.9003 82.7472C32.1617 82.5369 32.3549 82.2571 32.4799 81.9077C32.6077 81.5582 32.6717 81.1733 32.6717 80.7528C32.6717 80.3352 32.6077 79.9517 32.4799 79.6023C32.3549 79.25 32.1617 78.9673 31.9003 78.7543C31.639 78.5412 31.3094 78.4347 30.9117 78.4347C30.5111 78.4347 30.1788 78.5412 29.9146 78.7543C29.6532 78.9673 29.4586 79.25 29.3307 79.6023C29.2057 79.9517 29.1432 80.3352 29.1432 80.7528C29.1432 81.1733 29.2057 81.5582 29.3307 81.9077C29.4586 82.2571 29.6532 82.5369 29.9146 82.7472C30.1788 82.9574 30.5111 83.0625 30.9117 83.0625ZM36.3127 81.7798L36.3042 80.2244H36.5258L39.1337 77.4545H40.6593L37.6849 80.608H37.4846L36.3127 81.7798ZM35.1408 84V75.2727H36.415V84H35.1408ZM39.2743 84L36.9306 80.8892L37.8084 79.9986L40.8383 84H39.2743ZM42.4211 86.4545C42.2307 86.4545 42.0574 86.4389 41.9012 86.4077C41.7449 86.3793 41.6284 86.348 41.5517 86.3139L41.8586 85.2699C42.0915 85.3324 42.2989 85.3594 42.4807 85.3509C42.6625 85.3423 42.823 85.2741 42.9623 85.1463C43.1043 85.0185 43.2293 84.8097 43.3373 84.5199L43.4949 84.0852L41.1 77.4545H42.4637L44.1213 82.5341H44.1895L45.8472 77.4545H47.2151L44.5176 84.8736C44.3926 85.2145 44.2336 85.5028 44.0404 85.7386C43.8472 85.9773 43.6171 86.1563 43.35 86.2756C43.083 86.3949 42.7733 86.4545 42.4211 86.4545ZM50.707 84.1321C50.0933 84.1321 49.5578 83.9915 49.1004 83.7102C48.6431 83.429 48.2879 83.0355 48.0351 82.5298C47.7823 82.0241 47.6558 81.4332 47.6558 80.7571C47.6558 80.0781 47.7823 79.4844 48.0351 78.9759C48.2879 78.4673 48.6431 78.0724 49.1004 77.7912C49.5578 77.5099 50.0933 77.3693 50.707 77.3693C51.3206 77.3693 51.8561 77.5099 52.3135 77.7912C52.7709 78.0724 53.126 78.4673 53.3789 78.9759C53.6317 79.4844 53.7581 80.0781 53.7581 80.7571C53.7581 81.4332 53.6317 82.0241 53.3789 82.5298C53.126 83.0355 52.7709 83.429 52.3135 83.7102C51.8561 83.9915 51.3206 84.1321 50.707 84.1321ZM50.7112 83.0625C51.109 83.0625 51.4385 82.9574 51.6999 82.7472C51.9612 82.5369 52.1544 82.2571 52.2794 81.9077C52.4073 81.5582 52.4712 81.1733 52.4712 80.7528C52.4712 80.3352 52.4073 79.9517 52.2794 79.6023C52.1544 79.25 51.9612 78.9673 51.6999 78.7543C51.4385 78.5412 51.109 78.4347 50.7112 78.4347C50.3107 78.4347 49.9783 78.5412 49.7141 78.7543C49.4527 78.9673 49.2581 79.25 49.1303 79.6023C49.0053 79.9517 48.9428 80.3352 48.9428 80.7528C48.9428 81.1733 49.0053 81.5582 49.1303 81.9077C49.2581 82.2571 49.4527 82.5369 49.7141 82.7472C49.9783 82.9574 50.3107 83.0625 50.7112 83.0625Z" fill="white"/>
<g clip-path="url(#clip0_20_1008)">
<path d="M249 80.0002L251 82.0002L255 78.0002M258.667 80.0002C258.667 83.6821 255.682 86.6668 252 86.6668C248.318 86.6668 245.333 83.6821 245.333 80.0002C245.333 76.3183 248.318 73.3335 252 73.3335C255.682 73.3335 258.667 76.3183 258.667 80.0002Z" stroke="white" stroke-linecap="round" stroke-linejoin="round"/>
</g>
<rect x="10.6666" y="98" width="259.333" height="28" rx="6" fill="#242429"/>
<path d="M28.6695 107.273V116H27.4592L23.0232 109.599H22.9422V116H21.6254V107.273H22.8442L27.2845 113.682H27.3655V107.273H28.6695ZM33.069 116.132C32.4241 116.132 31.8687 115.994 31.4028 115.719C30.9398 115.44 30.5818 115.05 30.329 114.547C30.079 114.041 29.954 113.449 29.954 112.77C29.954 112.099 30.079 111.509 30.329 110.997C30.5818 110.486 30.9341 110.087 31.3858 109.8C31.8403 109.513 32.3716 109.369 32.9795 109.369C33.3489 109.369 33.7068 109.43 34.0534 109.553C34.4 109.675 34.7111 109.866 34.9866 110.128C35.2622 110.389 35.4795 110.729 35.6386 111.146C35.7977 111.561 35.8773 112.065 35.8773 112.659V113.111H30.6741V112.156H34.6287C34.6287 111.821 34.5605 111.524 34.4241 111.266C34.2878 111.004 34.096 110.798 33.8489 110.648C33.6045 110.497 33.3176 110.422 32.9881 110.422C32.6301 110.422 32.3176 110.51 32.0506 110.686C31.7864 110.859 31.5818 111.087 31.4369 111.368C31.2949 111.646 31.2239 111.949 31.2239 112.276V113.021C31.2239 113.459 31.3006 113.831 31.454 114.138C31.6102 114.445 31.8275 114.679 32.106 114.841C32.3844 115 32.7097 115.08 33.0818 115.08C33.3233 115.08 33.5435 115.045 33.7423 114.977C33.9412 114.906 34.1131 114.801 34.2579 114.662C34.4028 114.523 34.5136 114.351 34.5903 114.146L35.7963 114.364C35.6997 114.719 35.5264 115.03 35.2764 115.297C35.0293 115.561 34.7182 115.767 34.3432 115.915C33.971 116.06 33.5463 116.132 33.069 116.132ZM38.4583 116L36.5322 109.455H37.8489L39.1316 114.261H39.1955L40.4824 109.455H41.7992L43.0776 114.24H43.1415L44.4157 109.455H45.7324L43.8106 116H42.5108L41.1813 111.274H41.0833L39.7537 116H38.4583ZM49.0664 107.273H50.5621L52.8419 111.24H52.9357L55.2155 107.273H56.7112L53.5451 112.574V116H52.2326V112.574L49.0664 107.273ZM59.2912 116.132C58.6776 116.132 58.1421 115.991 57.6847 115.71C57.2273 115.429 56.8722 115.036 56.6193 114.53C56.3665 114.024 56.2401 113.433 56.2401 112.757C56.2401 112.078 56.3665 111.484 56.6193 110.976C56.8722 110.467 57.2273 110.072 57.6847 109.791C58.1421 109.51 58.6776 109.369 59.2912 109.369C59.9048 109.369 60.4403 109.51 60.8977 109.791C61.3551 110.072 61.7102 110.467 61.9631 110.976C62.2159 111.484 62.3423 112.078 62.3423 112.757C62.3423 113.433 62.2159 114.024 61.9631 114.53C61.7102 115.036 61.3551 115.429 60.8977 115.71C60.4403 115.991 59.9048 116.132 59.2912 116.132ZM59.2955 115.062C59.6932 115.062 60.0227 114.957 60.2841 114.747C60.5455 114.537 60.7386 114.257 60.8636 113.908C60.9915 113.558 61.0554 113.173 61.0554 112.753C61.0554 112.335 60.9915 111.952 60.8636 111.602C60.7386 111.25 60.5455 110.967 60.2841 110.754C60.0227 110.541 59.6932 110.435 59.2955 110.435C58.8949 110.435 58.5625 110.541 58.2983 110.754C58.0369 110.967 57.8423 111.25 57.7145 111.602C57.5895 111.952 57.527 112.335 57.527 112.753C57.527 113.173 57.5895 113.558 57.7145 113.908C57.8423 114.257 58.0369 114.537 58.2983 114.747C58.5625 114.957 58.8949 115.062 59.2955 115.062ZM63.5246 116V109.455H64.7561V110.494H64.8243C64.9436 110.142 65.1538 109.865 65.455 109.663C65.7589 109.459 66.1027 109.357 66.4862 109.357C66.5658 109.357 66.6595 109.359 66.7675 109.365C66.8783 109.371 66.9649 109.378 67.0274 109.386V110.605C66.9763 110.591 66.8854 110.575 66.7547 110.558C66.624 110.538 66.4933 110.528 66.3626 110.528C66.0615 110.528 65.793 110.592 65.5572 110.72C65.3243 110.845 65.1396 111.02 65.0033 111.244C64.8669 111.466 64.7987 111.719 64.7987 112.003V116H63.5246ZM69.0619 113.78L69.0534 112.224H69.275L71.8829 109.455H73.4085L70.4341 112.608H70.2338L69.0619 113.78ZM67.89 116V107.273H69.1642V116H67.89ZM72.0236 116L69.6798 112.889L70.5576 111.999L73.5875 116H72.0236Z" fill="white"/>
<rect x="10.6666" y="130" width="259.333" height="28" rx="6" fill="#242429"/>
<path d="M21.6254 139.273H23.2234L26.0019 146.057H26.1041L28.8825 139.273H30.4805V148H29.2277V141.685H29.1467L26.5729 147.987H25.5331L22.9592 141.68H22.8783V148H21.6254V139.273ZM34.8737 148.132C34.2288 148.132 33.6734 147.994 33.2075 147.719C32.7445 147.44 32.3865 147.05 32.1337 146.547C31.8837 146.041 31.7587 145.449 31.7587 144.77C31.7587 144.099 31.8837 143.509 32.1337 142.997C32.3865 142.486 32.7388 142.087 33.1905 141.8C33.645 141.513 34.1763 141.369 34.7842 141.369C35.1535 141.369 35.5115 141.43 35.8581 141.553C36.2047 141.675 36.5158 141.866 36.7913 142.128C37.0669 142.389 37.2842 142.729 37.4433 143.146C37.6024 143.561 37.682 144.065 37.682 144.659V145.111H32.4788V144.156H36.4334C36.4334 143.821 36.3652 143.524 36.2288 143.266C36.0925 143.004 35.9007 142.798 35.6535 142.648C35.4092 142.497 35.1223 142.422 34.7927 142.422C34.4348 142.422 34.1223 142.51 33.8552 142.686C33.591 142.859 33.3865 143.087 33.2416 143.368C33.0996 143.646 33.0285 143.949 33.0285 144.276V145.021C33.0285 145.459 33.1052 145.831 33.2587 146.138C33.4149 146.445 33.6322 146.679 33.9106 146.841C34.1891 147 34.5143 147.08 34.8865 147.08C35.128 147.08 35.3481 147.045 35.547 146.977C35.7459 146.906 35.9177 146.801 36.0626 146.662C36.2075 146.523 36.3183 146.351 36.395 146.146L37.601 146.364C37.5044 146.719 37.3311 147.03 37.0811 147.297C36.8339 147.561 36.5229 147.767 36.1479 147.915C35.7757 148.06 35.351 148.132 34.8737 148.132ZM39.709 141.455L41.1536 144.003L42.611 141.455H44.0045L41.9633 144.727L44.0215 148H42.628L41.1536 145.554L39.6834 148H38.2857L40.3226 144.727L38.3113 141.455H39.709ZM45.0727 148V141.455H46.3468V148H45.0727ZM45.7162 140.445C45.4946 140.445 45.3042 140.371 45.1451 140.223C44.9889 140.072 44.9108 139.893 44.9108 139.686C44.9108 139.476 44.9889 139.297 45.1451 139.149C45.3042 138.999 45.4946 138.923 45.7162 138.923C45.9377 138.923 46.1267 138.999 46.2829 139.149C46.442 139.297 46.5216 139.476 46.5216 139.686C46.5216 139.893 46.442 140.072 46.2829 140.223C46.1267 140.371 45.9377 140.445 45.7162 140.445ZM50.5781 148.132C49.9446 148.132 49.3991 147.989 48.9417 147.702C48.4872 147.412 48.1377 147.013 47.8934 146.504C47.6491 145.996 47.5269 145.413 47.5269 144.757C47.5269 144.092 47.6519 143.506 47.9019 142.997C48.1519 142.486 48.5042 142.087 48.9588 141.8C49.4133 141.513 49.9488 141.369 50.5653 141.369C51.0625 141.369 51.5056 141.462 51.8948 141.646C52.284 141.828 52.598 142.084 52.8366 142.413C53.0781 142.743 53.2215 143.128 53.267 143.568H52.0269C51.9588 143.261 51.8025 142.997 51.5582 142.776C51.3167 142.554 50.9928 142.443 50.5866 142.443C50.2315 142.443 49.9204 142.537 49.6534 142.724C49.3892 142.909 49.1832 143.173 49.0355 143.517C48.8877 143.858 48.8139 144.261 48.8139 144.727C48.8139 145.205 48.8863 145.616 49.0312 145.963C49.1761 146.31 49.3806 146.578 49.6448 146.768C49.9119 146.959 50.2258 147.054 50.5866 147.054C50.8281 147.054 51.0468 147.01 51.2428 146.922C51.4417 146.831 51.6079 146.702 51.7414 146.534C51.8778 146.366 51.973 146.165 52.0269 145.929H53.267C53.2215 146.352 53.0838 146.73 52.8536 147.062C52.6235 147.395 52.3153 147.656 51.9289 147.847C51.5454 148.037 51.0951 148.132 50.5781 148.132ZM57.1467 148.132C56.533 148.132 55.9975 147.991 55.5401 147.71C55.0827 147.429 54.7276 147.036 54.4748 146.53C54.222 146.024 54.0955 145.433 54.0955 144.757C54.0955 144.078 54.222 143.484 54.4748 142.976C54.7276 142.467 55.0827 142.072 55.5401 141.791C55.9975 141.51 56.533 141.369 57.1467 141.369C57.7603 141.369 58.2958 141.51 58.7532 141.791C59.2106 142.072 59.5657 142.467 59.8185 142.976C60.0714 143.484 60.1978 144.078 60.1978 144.757C60.1978 145.433 60.0714 146.024 59.8185 146.53C59.5657 147.036 59.2106 147.429 58.7532 147.71C58.2958 147.991 57.7603 148.132 57.1467 148.132ZM57.1509 147.062C57.5487 147.062 57.8782 146.957 58.1396 146.747C58.4009 146.537 58.5941 146.257 58.7191 145.908C58.847 145.558 58.9109 145.173 58.9109 144.753C58.9109 144.335 58.847 143.952 58.7191 143.602C58.5941 143.25 58.4009 142.967 58.1396 142.754C57.8782 142.541 57.5487 142.435 57.1509 142.435C56.7504 142.435 56.418 142.541 56.1538 142.754C55.8924 142.967 55.6978 143.25 55.57 143.602C55.445 143.952 55.3825 144.335 55.3825 144.753C55.3825 145.173 55.445 145.558 55.57 145.908C55.6978 146.257 55.8924 146.537 56.1538 146.747C56.418 146.957 56.7504 147.062 57.1509 147.062Z" fill="white"/>
<defs>
<linearGradient id="paint0_linear_20_1008" x1="6.8945" y1="54.5" x2="7.02636" y2="112.604" gradientUnits="userSpaceOnUse">
<stop stop-color="#A06DF6"/>
<stop offset="0.25" stop-color="#D174CD"/>
<stop offset="0.500078" stop-color="#FF76AF"/>
<stop offset="0.745078" stop-color="#FD918F"/>
<stop offset="1" stop-color="#FCAB73"/>
</linearGradient>
<clipPath id="clip0_20_1008">
<rect width="16" height="16" fill="white" transform="translate(244 72)"/>
</clipPath>
</defs>
</svg>
