<svg width="14" height="14" viewBox="0 0 14 14" fill="none" xmlns="http://www.w3.org/2000/svg">
<path d="M5.82141 12.0667L5.48048 11.2999C5.35901 11.0262 5.15386 10.7982 4.89456 10.6485C4.6351 10.4988 4.33495 10.4351 4.03706 10.4664L3.20289 10.5552C2.9546 10.5813 2.70407 10.5349 2.4816 10.4216C2.25914 10.3083 2.07427 10.1329 1.94937 9.91675C1.82443 9.7006 1.76491 9.45284 1.77803 9.20352C1.79114 8.95421 1.87633 8.71406 2.02326 8.51221L2.51715 7.8336C2.69328 7.59138 2.78813 7.29957 2.78807 7.00008C2.78813 6.70059 2.69328 6.40879 2.51715 6.16656L2.02326 5.48795C1.87633 5.28611 1.79114 5.04596 1.77803 4.79664C1.76491 4.54733 1.82443 4.29956 1.94937 4.08341C2.07415 3.86713 2.25899 3.6917 2.48149 3.57838C2.70399 3.46506 2.95458 3.41872 3.20289 3.44499L4.03965 3.53379C4.33754 3.56507 4.63769 3.50132 4.89715 3.35166C5.15549 3.20156 5.35969 2.97354 5.48048 2.70027L5.82141 1.93351C5.92276 1.70526 6.08815 1.51133 6.29754 1.37523C6.50693 1.23913 6.75131 1.16671 7.00104 1.16675C7.25077 1.16671 7.49515 1.23913 7.70454 1.37523C7.91392 1.51133 8.07932 1.70526 8.18067 1.93351L8.52419 2.70027C8.64498 2.97354 8.84918 3.20156 9.10752 3.35166C9.36698 3.50132 9.66713 3.56507 9.96502 3.53379L10.7992 3.44499C11.0475 3.41872 11.2981 3.46506 11.5206 3.57838C11.7431 3.6917 11.9279 3.86713 12.0527 4.08341C12.1776 4.29956 12.2372 4.54733 12.224 4.79664C12.2109 5.04596 12.1257 5.28611 11.9788 5.48795L11.4849 6.16656C11.3088 6.40879 11.2139 6.70059 11.214 7.00008C11.2125 7.30039 11.3065 7.59341 11.4823 7.83684L11.9762 8.51545C12.1231 8.7173 12.2083 8.95745 12.2215 9.20676C12.2346 9.45608 12.175 9.70384 12.0501 9.91999C11.9253 10.1363 11.7405 10.3117 11.518 10.425C11.2955 10.5383 11.0449 10.5847 10.7966 10.5584L9.96243 10.4696C9.66454 10.4383 9.36438 10.5021 9.10493 10.6517C8.8471 10.801 8.64295 11.0278 8.52159 11.2999L8.18067 12.0667C8.07932 12.2949 7.91392 12.4888 7.70454 12.6249C7.49515 12.761 7.25077 12.8335 7.00104 12.8334C6.75131 12.8335 6.50693 12.761 6.29754 12.6249C6.08815 12.4888 5.92276 12.2949 5.82141 12.0667Z" stroke="white" stroke-width="1.25" stroke-linecap="round" stroke-linejoin="round"/>
</svg>
