<svg width="14" height="14" viewBox="0 0 14 14" fill="none" xmlns="http://www.w3.org/2000/svg">
<g clip-path="url(#clip0_20_39167)">
<path d="M11.0833 1.16675L9.33327 2.91675V4.66675H11.0833L12.8333 2.91675L11.6666 2.33341L11.0833 1.16675Z" fill="white"/>
<path d="M9.33327 4.66675L6.99994 7.00005L9.33327 4.66675Z" fill="white"/>
<path d="M9.33327 4.66675V2.91675L11.0833 1.16675L11.6666 2.33341L12.8333 2.91675L11.0833 4.66675H9.33327ZM9.33327 4.66675L6.99994 7.00005M12.8333 7.00008C12.8333 10.2217 10.2216 12.8334 6.99996 12.8334C3.7783 12.8334 1.16663 10.2217 1.16663 7.00008C1.16663 3.77842 3.7783 1.16675 6.99996 1.16675M9.91663 7.00008C9.91663 8.61091 8.61079 9.91675 6.99996 9.91675C5.38913 9.91675 4.08329 8.61091 4.08329 7.00008C4.08329 5.38925 5.38913 4.08341 6.99996 4.08341" stroke="white" stroke-linecap="round" stroke-linejoin="round"/>
</g>
<defs>
<clipPath id="clip0_20_39167">
<rect width="14" height="14" fill="white"/>
</clipPath>
</defs>
</svg>
